<svg width="24" height="10" viewBox="0 0 24 10" fill="none" xmlns="http://www.w3.org/2000/svg">
<path fill-rule="evenodd" clip-rule="evenodd" d="M10.8951 4.93347C9.04771 5.92064 6.99149 6.56707 4.80967 6.79036C4.24933 6.84777 3.6811 6.87699 3.10576 6.87699C3.03124 6.87699 2.95646 6.87673 2.88221 6.87568C2.43563 6.86989 1.99378 6.84592 1.55668 6.80485C1.23807 6.60578 0.927361 6.39592 0.624023 6.17579C1.40238 5.94144 2.15678 5.65153 2.88221 5.31027C3.55024 4.99561 4.1943 4.6383 4.80967 4.24017C5.20016 3.98896 5.57907 3.72117 5.94561 3.43811C7.47836 4.18118 9.14303 4.69465 10.8951 4.93347Z" fill="#219953" stroke="#219953" stroke-width="1.248" stroke-linecap="round" stroke-linejoin="round"/>
<path fill-rule="evenodd" clip-rule="evenodd" d="M22.7425 3.72639C21.8106 4.78018 20.7466 5.71442 19.5767 6.50278C18.9624 6.9175 18.3183 7.29167 17.6492 7.62186C15.4429 8.70961 12.9601 9.32077 10.3343 9.32077C8.39741 9.32077 6.53762 8.98794 4.80975 8.37652C4.14672 8.14191 3.50318 7.86675 2.88229 7.55261C2.42781 7.32327 1.9857 7.07391 1.55676 6.8048C1.99386 6.84588 2.43571 6.86984 2.88229 6.87563C2.95654 6.87668 3.03132 6.87695 3.10584 6.87695C3.68118 6.87695 4.24941 6.84772 4.80975 6.79032C6.99157 6.56703 9.04779 5.92059 10.8952 4.93342C12.9011 3.86279 14.6606 2.39007 16.0664 0.624023C16.5712 1.01557 17.0997 1.37868 17.6492 1.71072C18.2667 2.0841 18.9102 2.41772 19.5767 2.70947C19.989 2.88932 20.4101 3.05336 20.8393 3.20029C21.4578 3.41252 22.0934 3.58868 22.7425 3.72639Z" fill="#2FC56D" stroke="#2FC56D" stroke-width="1.248" stroke-linecap="round" stroke-linejoin="round"/>
</svg>
