<svg width="23" height="23" viewBox="0 0 23 23" fill="none" xmlns="http://www.w3.org/2000/svg">
<path d="M3.55603 8.87549L2.05034 11.1334C1.87039 11.4047 1.81706 11.7408 1.90416 12.0545C1.99126 12.3682 2.21022 12.6286 2.50429 12.7684L7.85666 15.2994C8.36096 15.5337 8.9608 15.3657 9.26998 14.9035L10.9578 12.3725L3.55603 8.87549Z" fill="white"/>
<path d="M14.6422 15.2981L19.9827 12.7697C20.2775 12.6303 20.497 12.3696 20.5842 12.0554C20.6714 11.7412 20.6175 11.4047 20.4366 11.1334L18.9309 8.87549L11.5411 12.3751L13.2289 14.9075C13.5393 15.3682 14.1392 15.5341 14.6422 15.2981V15.2981Z" fill="white"/>
<path d="M14.8164 16.1298C14.136 16.4488 13.3246 16.2248 12.9043 15.6019L11.2534 13.125L9.60124 15.6006C9.31757 16.0229 8.84186 16.2759 8.33309 16.2749C8.11084 16.2753 7.8913 16.2262 7.69044 16.1311L3.33569 14.0712L3.3357 14.9352C3.33555 16.0774 3.99376 17.1174 5.02613 17.6061L9.94435 19.926C10.7441 20.3048 11.6716 20.3048 12.4714 19.926L17.486 17.5507C18.5174 17.0618 19.175 16.0225 19.1751 14.8811L19.1751 14.0593L14.8164 16.1298Z" fill="white"/>
<path d="M3.32377 8.21572L11.0686 4.55377L9.7226 3.26319C9.0909 2.65619 8.14998 2.50234 7.35784 2.87654L2.76821 5.04335C2.39176 5.22043 2.12085 5.56465 2.03721 5.97218C1.95358 6.3797 2.06701 6.8028 2.34329 7.11384L3.32245 8.21572H3.32377Z" fill="white"/>
<path d="M19.1024 8.25664L20.112 7.12045C20.3883 6.8096 20.502 6.38664 20.4186 5.97914C20.3352 5.57164 20.0646 5.2273 19.6884 5.04996L15.0961 2.88315C14.3047 2.51018 13.3652 2.66396 12.734 3.2698L11.3576 4.58942L19.1024 8.25664Z" fill="white"/>
<path d="M11.2481 5.39966L4.68365 8.5024L11.2538 11.6097L17.8125 8.50355L11.2481 5.39966V5.39966Z" fill="white"/>
</svg>
