<svg width="23" height="23" viewBox="0 0 23 23" fill="none" xmlns="http://www.w3.org/2000/svg">
<path fill-rule="evenodd" clip-rule="evenodd" d="M15.7943 1.31226C16.9468 1.34343 18.0731 1.82617 18.9328 2.68664C19.766 3.51826 20.2443 4.59933 20.3017 5.71676C20.3203 6.07873 20.6287 6.35709 20.9907 6.33852C21.3527 6.31994 21.631 6.01146 21.6125 5.64949C21.5385 4.20827 20.9242 2.81982 19.8607 1.75833C18.7636 0.660287 17.3174 0.0404798 15.8298 0.000244672C15.4675 -0.0095545 15.1659 0.276207 15.1561 0.638512C15.1463 1.00082 15.432 1.30247 15.7943 1.31226ZM13.3206 20.9867H9.30808C8.95071 20.9867 8.66091 20.7013 8.66091 20.3494C8.66091 19.9975 8.95071 19.7121 9.30808 19.7121H13.3206C13.6779 19.7121 13.9678 19.9975 13.9678 20.3494C13.9678 20.7013 13.6779 20.9867 13.3206 20.9867ZM17.4659 4.15211C16.9773 3.66286 16.3233 3.41296 15.6748 3.44749C15.3129 3.46676 15.0039 3.18898 14.9846 2.82706C14.9653 2.46513 15.2431 2.15611 15.605 2.13684C16.625 2.08254 17.6422 2.47123 18.3939 3.224C19.0766 3.9056 19.4618 4.8058 19.4853 5.73235C19.4946 6.09467 19.2083 6.39586 18.846 6.40508C18.4837 6.4143 18.1825 6.12805 18.1733 5.76574C18.1582 5.17527 17.9104 4.59588 17.4659 4.15211ZM15.3515 4.68787H7.14845C6.30699 4.68787 5.625 5.35945 5.625 6.18805V21.0002C5.625 21.8288 6.30699 22.5004 7.14845 22.5004H15.3515C16.1929 22.5004 16.875 21.8288 16.875 21.0002V6.18805C16.875 5.35945 16.1929 4.68787 15.3515 4.68787" fill="#EAFAF1"/>
</svg>
