<svg width="23" height="23" viewBox="0 0 23 23" fill="none" xmlns="http://www.w3.org/2000/svg">
<path d="M6.46729 10.3125C9.315 10.3125 11.6235 12.621 11.6235 15.4687C11.6235 18.3164 9.315 20.625 6.46729 20.625C3.61978 20.6247 1.31104 18.3163 1.31104 15.4687C1.31104 12.6212 3.61978 10.3127 6.46729 10.3125ZM8.85889 13.8994C8.62508 13.6863 8.26247 13.7028 8.04932 13.9365L5.8374 16.3632L4.86279 15.4101L4.80811 15.3632C4.58133 15.1913 4.25627 15.211 4.05225 15.4199C3.83133 15.6462 3.83573 16.0094 4.06201 16.2304L5.46143 17.5976L5.51807 17.6455C5.7506 17.8206 6.08417 17.7943 6.28564 17.5732L8.896 14.709L8.94189 14.6523C9.10573 14.4197 9.07462 14.096 8.85889 13.8994ZM20.0591 12.5888C20.3907 12.4036 20.8139 12.5162 21.0034 12.8408C21.1925 13.1653 21.0769 13.5791 20.7456 13.7646L14.3462 17.3437L12.6812 16.3925C12.7256 16.091 12.7495 15.7826 12.7495 15.4687C12.7495 15.2588 12.7384 15.0512 12.7183 14.8466L14.353 15.7802L20.0591 12.5888ZM20.0591 10.0498C20.3907 9.86454 20.8139 9.97718 21.0034 10.3017C21.1926 10.6262 21.0769 11.04 20.7456 11.2256L14.3462 14.8047L12.5112 13.7568C12.2788 12.9347 11.8844 12.1811 11.3628 11.5332L14.353 13.2412L20.0591 10.0498ZM20.7114 7.49313C21.2051 7.73507 21.2247 8.41811 20.7456 8.68649L14.6929 12.0722C14.4786 12.192 14.2147 12.1907 14.0015 12.0693L9.60596 9.55856V9.37301L16.4624 5.41305L20.7114 7.49313ZM3.37646 7.75778C3.56895 7.43507 3.99191 7.32556 4.32178 7.51364L7.3667 9.25192C7.07347 9.20993 6.7731 9.18749 6.46826 9.18747C5.91566 9.18749 5.3792 9.25852 4.86865 9.39254L3.62549 8.68356C3.29549 8.49515 3.18397 8.08077 3.37646 7.75778ZM9.75342 2.3984C9.94026 2.32017 10.1536 2.32612 10.3354 2.41501L14.6304 4.51657L8.49854 8.05758C8.23729 8.14244 8.03243 8.35121 7.95166 8.61422L3.62549 6.1445C3.13479 5.86433 3.17876 5.15673 3.70068 4.93747L9.75342 2.3984Z" fill="white"/>
</svg>
