<svg width="18" height="18" viewBox="0 0 18 18" fill="none" xmlns="http://www.w3.org/2000/svg">
<path fill-rule="evenodd" clip-rule="evenodd" d="M9.07501 7.05338C8.08276 7.05338 7.27501 7.86113 7.27501 8.85338C7.27501 9.16913 7.35676 9.46688 7.50001 9.72563L9.94651 7.27913C9.68776 7.13513 9.39151 7.05338 9.07501 7.05338ZM8.12025 10.3789C8.397 10.5529 8.724 10.6541 9.075 10.6541C10.0672 10.6541 10.875 9.84637 10.875 8.85337C10.875 8.50312 10.7745 8.17537 10.5997 7.89862L8.12025 10.3789ZM9.075 4.80337C5.1525 4.80337 2.1225 8.32762 2.02425 8.87437C2.088 9.20062 3.38025 10.7944 5.349 11.8766L6.8475 10.3789C6.54975 9.94387 6.375 9.41887 6.375 8.85337C6.375 7.36462 7.58625 6.15412 9.075 6.15412C9.6405 6.15412 10.1655 6.32812 10.5998 6.62662L11.8508 5.37562C11.0048 5.02987 10.068 4.80337 9.075 4.80337ZM6.20625 12.2929C7.07625 12.6611 8.0445 12.9041 9.075 12.9041C12.9975 12.9041 16.0275 9.37987 16.1257 8.83312C16.0612 8.50162 14.7315 6.86662 12.7155 5.78437L11.247 7.25212C11.5792 7.69987 11.775 8.25487 11.775 8.85337C11.775 10.3429 10.5637 11.5534 9.075 11.5534C8.47575 11.5534 7.9215 11.3569 7.473 11.0261L6.20625 12.2929ZM2.8545 15.4571C2.73975 15.4571 2.62425 15.4129 2.5365 15.3251C2.361 15.1496 2.361 14.8646 2.5365 14.6899L4.698 12.5276C2.5845 11.3119 1.125 9.56587 1.125 8.85337C1.125 7.71187 4.88325 3.90412 9.075 3.90412C10.287 3.90412 11.4645 4.22287 12.5235 4.70287L14.8447 2.38162C15.021 2.20613 15.3053 2.20613 15.4808 2.38162C15.6563 2.55788 15.6563 2.84288 15.4808 3.01762L13.3673 5.13112C15.5273 6.34912 17.025 8.13262 17.025 8.85337C17.025 9.99562 13.2668 13.8034 9.075 13.8034C7.82775 13.8034 6.61875 13.4666 5.53575 12.9626L3.1725 15.3251C3.08475 15.4129 2.96925 15.4571 2.8545 15.4571Z" fill="#1A1A1A"/>
</svg>
