<svg width="24" height="24" viewBox="0 0 24 24" fill="none" xmlns="http://www.w3.org/2000/svg">
<path d="M13.912 18.6985C13.6669 19.6233 12.8318 20.3079 11.83 20.3079C10.8282 20.3079 9.99313 19.6233 9.74798 18.6985H13.912ZM12.3495 2.91138C13.4087 3.01139 14.2908 3.75033 14.5888 4.7522L14.746 4.83228C16.7449 5.89164 18.0532 8.03076 18.0829 10.4397L18.081 10.6985C18.071 10.7927 18.0587 10.9204 18.0449 11.0735L17.9745 11.9612C17.9587 12.1975 17.9458 12.4284 17.9365 12.6487C17.9053 13.3839 17.9182 13.9453 17.9765 14.2024C17.9986 14.2995 18.0503 14.4277 18.1601 14.6545L18.5019 15.3459C18.6305 15.6187 18.6886 15.7814 18.7265 15.9749C18.9314 17.0253 18.1752 17.9547 17.1298 17.928L6.68841 17.8616C5.62609 17.8344 4.68351 16.8714 4.94329 15.8235C4.99502 15.6148 5.07402 15.4246 5.26067 15.0471L5.62103 14.3264C5.72485 14.1122 5.77622 13.9893 5.80267 13.8958C5.85992 13.6916 5.89832 13.2897 5.91399 12.7581L5.92083 12.3352C5.92417 11.8882 5.91565 11.407 5.89837 10.9299L5.87396 10.342C5.93573 7.87354 7.37667 5.69115 9.49993 4.70044L9.66106 4.62915C10.01 3.63966 10.9326 2.94455 12.0009 2.90161L12.1708 2.90063L12.3495 2.91138ZM12.0077 4.10376C11.3918 4.14715 10.8734 4.59337 10.7441 5.20044C10.7013 5.40133 10.5587 5.56644 10.3661 5.63794C8.46052 6.34561 7.12658 8.22321 7.0722 10.3245C7.07469 10.3693 7.07774 10.4275 7.08099 10.4973L7.11224 11.3801C7.12007 11.7084 7.12336 12.0338 7.12103 12.345C7.11466 13.1924 7.0683 13.8261 6.95794 14.22C6.90837 14.3957 6.84271 14.5582 6.70794 14.8362L6.41399 15.4231C6.26784 15.7143 6.185 15.8909 6.14056 16.01L6.10833 16.1116C6.0524 16.337 6.36006 16.6521 6.70696 16.6614L17.1493 16.7288C17.4275 16.7356 17.6088 16.5119 17.5488 16.2043C17.5331 16.1248 17.4916 16.0171 17.4013 15.8264L17.1406 15.3C16.9446 14.9058 16.8602 14.7038 16.8066 14.468C16.7167 14.0715 16.7016 13.4397 16.7372 12.5979C16.7519 12.2526 16.7747 11.8858 16.8036 11.511C16.8219 11.2742 16.8417 11.0478 16.8613 10.8401L16.8847 10.6204C16.9383 8.47062 15.701 6.52827 13.8339 5.72485C13.6454 5.64377 13.5112 5.47136 13.4784 5.2688C13.3723 4.61297 12.8117 4.11728 12.1406 4.09985L12.0077 4.10376Z" fill="#F2F2F2"/>
</svg>
