<svg width="24" height="24" viewBox="0 0 24 24" fill="none" xmlns="http://www.w3.org/2000/svg">
<path d="M18.65 13.28C18.95 13.28 19.2 13.5 19.24 13.78L19.25 13.88V18.4H20.79C21.12 18.4 21.39 18.67 21.39 19C21.39 19.3 21.17 19.55 20.89 19.59L20.79 19.6H3.6C3.27 19.6 3 19.33 3 19C3 18.7 3.22 18.45 3.5 18.41L3.6 18.4H5.03V13.88C5.03 13.55 5.3 13.28 5.63 13.28C5.93 13.28 6.18 13.5 6.22 13.78L6.23 13.88V18.4H18.05V13.88C18.05 13.55 18.32 13.28 18.65 13.28ZM16.1 12.55C16.4 12.55 16.65 12.77 16.69 13.05L16.7 13.15V16.75C16.7 17.05 16.48 17.3 16.2 17.34L16.1 17.35H8.18C7.88 17.35 7.63 17.13 7.59 16.85L7.58 16.75V13.15C7.58 12.82 7.85 12.55 8.18 12.55C8.48 12.55 8.73 12.77 8.77 13.05L8.78 13.15V16.15H15.5V13.15C15.5 12.85 15.72 12.6 16 12.56L16.1 12.55ZM18.17 4C18.8 4 19.36 4.41 19.5 5.01L19.52 5.14L20.25 10.77C20.25 11.72 19.42 12.48 18.44 12.48H17.12C16.66 12.48 16.23 12.31 15.9 12.04C15.62 12.28 15.27 12.43 14.88 12.47L14.69 12.48H13.37C12.9 12.48 12.47 12.31 12.15 12.03C11.81 12.3 11.38 12.47 10.92 12.47H9.59L9.45 12.46C9.04 12.43 8.67 12.27 8.38 12.03C8.05 12.31 7.63 12.47 7.16 12.47H5.84C4.9 12.47 4.11 11.79 4.04 10.84L4.03 10.69L4.75 5.14C4.83 4.52 5.35 4.07 5.97 4.01L6.1 4H18.17ZM11.53 5.2H9.15L8.98 10.77L8.99 10.84C9.03 11.05 9.23 11.22 9.5 11.26L9.62 11.27H10.93C11.28 11.27 11.55 11.03 11.55 10.76L11.53 5.2ZM7.95 5.2H6.1C6.03 5.2 5.97 5.23 5.95 5.26L5.94 5.29L5.23 10.76C5.23 11 5.45 11.22 5.74 11.26L5.84 11.27H7.16C7.47 11.27 7.72 11.08 7.77 10.85L7.78 10.75L7.95 5.2ZM15.13 5.2H12.74V10.77L12.75 10.84C12.79 11.05 12.99 11.23 13.26 11.26L13.36 11.27H14.68C14.99 11.27 15.24 11.08 15.29 10.85L15.3 10.75L15.13 5.2ZM18.17 5.2H16.32L16.49 10.77L16.5 10.84C16.54 11.05 16.74 11.23 17.01 11.26L17.11 11.27H18.43C18.74 11.27 18.99 11.08 19.04 10.9L19.05 10.84L18.33 5.29C18.33 5.26 18.29 5.22 18.22 5.21L18.17 5.2Z" fill="#AAAAAA"/>
</svg>
