<svg width="23" height="23" viewBox="0 0 23 23" fill="none" xmlns="http://www.w3.org/2000/svg">
<path d="M13.1836 8.54688C13.8509 8.36584 14.1008 9.38896 13.5 9.81836C12.8983 10.2477 9.19407 11.0232 9.27734 11.7002C9.36079 12.3772 13.1524 12.3642 14.7354 11.7666C17.3808 10.7675 19.0083 8.6376 19.793 8.66211C20.7606 8.69283 20.5937 9.55411 19.4424 10.6602C18.2908 11.766 15.2527 14.9036 13.9258 15.1514C12.5989 15.399 8.13431 17.1916 6.65723 19.0488C6.65723 19.0488 5.67378 21.2613 5.67285 21.5371C5.67285 21.8112 0.9375 19.0488 0.9375 19.0488L2.24902 16.1484C2.27962 16.0889 5.22932 10.3595 6.65723 9.63672C8.09262 8.91021 10.8636 9.17767 13.1836 8.54688ZM21.5625 5.27734C21.1389 5.96309 20.4726 6.80374 19.4531 7.55273C18.9069 7.65716 18.4036 8.02465 17.7803 8.51562C17.578 8.60535 17.3697 8.69231 17.1494 8.77246C16.108 9.15074 15.3389 9.60521 14.7695 10.0605C15.067 9.48617 15.0455 8.81233 14.8076 8.32129C14.7306 8.16264 14.6309 8.02298 14.5166 7.90137C14.9176 7.8593 15.3245 7.64482 15.6182 7.2793C16.1468 6.62135 16.113 5.72063 15.543 5.27246C14.9731 4.82472 14.0794 4.99559 13.5508 5.65332C13.1137 6.19733 13.0619 6.90585 13.3789 7.38867C13.2143 7.38357 13.0459 7.4016 12.8779 7.44727C11.9168 7.70855 10.8334 7.80333 9.78418 7.89453C8.99597 7.96305 8.23225 8.02938 7.54004 8.16699C7.73551 7.47815 8.59271 5.40589 12.0215 4.16113C14.2562 3.34927 15.4528 1.9198 16.043 0.9375L21.5625 5.27734ZM16.9795 2.78613C16.7893 2.63655 16.5114 2.66822 16.3604 2.85645L15.8125 3.53809C15.6615 3.72631 15.6937 3.9999 15.8838 4.14941C16.074 4.2988 16.3509 4.26808 16.502 4.08008L17.0498 3.39746C17.2007 3.20947 17.1694 2.9357 16.9795 2.78613Z" fill="#EAFAF1"/>
</svg>
