<svg width="20" height="20" viewBox="0 0 20 20" fill="none" xmlns="http://www.w3.org/2000/svg">
<path fill-rule="evenodd" clip-rule="evenodd" d="M0.593281 4.03479C0.265988 4.03479 0 3.77174 0 3.44805V1.33969C0 0.810639 0.22248 0.498687 0.409364 0.330487C0.807851 -0.0284044 1.3072 -0.00493464 1.40608 0.00680023L3.36094 0.00484441C3.68823 0.00484441 3.95323 0.266923 3.95323 0.591588C3.95323 0.915275 3.68823 1.17735 3.36094 1.17735H1.35169C1.27852 1.17833 1.22117 1.18713 1.20832 1.19789C1.20337 1.20376 1.18656 1.24776 1.18656 1.33969V3.44805C1.18656 3.77174 0.920575 4.03479 0.593281 4.03479V4.03479ZM18.6577 4.03476C18.3294 4.03476 18.0644 3.7717 18.0644 3.44802V1.33965C18.0644 1.24773 18.0466 1.20372 18.0407 1.1959C18.0298 1.1871 17.9784 1.18514 17.9398 1.17634L15.89 1.17732C15.5628 1.17732 15.2968 0.915242 15.2968 0.591555C15.2968 0.26689 15.5628 0.0048113 15.89 0.0048113H17.8993C17.9418 -0.00594567 18.4431 -0.0294154 18.8406 0.330454C19.0285 0.498654 19.25 0.810606 19.25 1.33965V3.44802C19.25 3.7717 18.985 4.03476 18.6577 4.03476V4.03476ZM4.26075 6.46194H6.37679V4.3702H4.26075V6.46194ZM6.49841 7.63544H4.13813C3.55178 7.63544 3.07517 7.16409 3.07517 6.58419V4.24993C3.07517 3.67003 3.55178 3.19868 4.13813 3.19868H6.49841C7.08476 3.19868 7.56236 3.67003 7.56236 4.24993V6.58419C7.56236 7.16409 7.08476 7.63544 6.49841 7.63544V7.63544ZM13.6672 6.46194H15.7823V4.3702H13.6672V6.46194ZM15.9039 7.63544H13.5446C12.9583 7.63544 12.4807 7.16311 12.4807 6.58321V4.24993C12.4807 3.67003 12.9583 3.19868 13.5446 3.19868H15.9039C16.4903 3.19868 16.9678 3.67003 16.9678 4.24993V6.58321C16.9678 7.16311 16.4903 7.63544 15.9039 7.63544V7.63544ZM8.6718 10.087C8.62829 10.087 8.59071 10.085 8.56105 10.0821H7.04621C6.71891 10.0821 6.45391 9.81905 6.45391 9.49536C6.45391 9.17167 6.71891 8.90862 7.04621 8.90862H8.55611L8.56303 6.80612C8.55611 6.6829 8.55808 6.16364 8.89131 5.81746C9.06732 5.63557 9.3076 5.53484 9.56765 5.53484H10.241L10.243 3.6602C10.243 3.33651 10.508 3.07443 10.8353 3.07443C11.1626 3.07443 11.4286 3.33651 11.4286 3.6602V5.6649C11.4286 6.08247 11.2486 6.3289 11.0983 6.4619C10.8561 6.67704 10.5416 6.72691 10.3261 6.70442L9.75157 6.70637C9.74959 6.73375 9.74761 6.76016 9.7486 6.78363V8.94284C9.7486 9.42886 9.54095 9.70366 9.36594 9.84741C9.12467 10.0469 8.85077 10.087 8.6718 10.087V10.087ZM5.0419 10.087H4.0531C3.72581 10.087 3.45982 9.82495 3.45982 9.50126C3.45982 9.17758 3.72581 8.91452 4.0531 8.91452H5.0419C5.3692 8.91452 5.63519 9.17758 5.63519 9.50126C5.63519 9.82495 5.3692 10.087 5.0419 10.087V10.087ZM15.5825 11.4062H13.9471C13.5852 11.4062 13.3854 11.2263 13.2984 11.1187C13.1352 10.9183 13.1234 10.6982 13.1362 10.5682V9.93546H11.3969C11.0696 9.93546 10.8036 9.67339 10.8036 9.3497C10.8036 9.02601 11.0696 8.76296 11.3969 8.76296H13.2757C13.8165 8.79816 14.3218 9.16487 14.3218 9.79758V10.2337H15.5825C15.9098 10.2337 16.1758 10.4958 16.1758 10.8195C16.1758 11.1442 15.9098 11.4062 15.5825 11.4062V11.4062ZM15.5825 15.7383C15.5618 15.7383 15.545 15.7373 15.5341 15.7373H14.4612C14.1339 15.7373 13.8689 15.4743 13.8689 15.1506C13.8689 14.8269 14.1339 14.5648 14.4612 14.5648H15.5667L15.6082 13.2769C15.6082 12.9532 15.8732 12.6911 16.2005 12.6911C16.5278 12.6911 16.7938 12.9532 16.7938 13.2769V14.5247C16.7938 14.9814 16.599 15.2611 16.4349 15.4146C16.1234 15.708 15.7328 15.7383 15.5825 15.7383V15.7383ZM9.51821 16.4053C9.19092 16.4053 8.92592 16.1432 8.92592 15.8195V14.3526C8.919 14.3429 8.87747 13.893 9.19982 13.5292C9.35407 13.3542 9.6428 13.1469 10.1431 13.1469H11.4622L11.5047 12.0536C11.5047 11.7299 11.7707 11.4678 12.098 11.4678C12.4253 11.4678 12.6903 11.7299 12.6903 12.0536V13.1048C12.6903 13.894 12.0584 14.3204 11.4622 14.3204H10.1431L10.1115 15.8195C10.1115 16.1432 9.8455 16.4053 9.51821 16.4053V16.4053ZM4.26075 15.7638H6.37679V13.673H4.26075V15.7638ZM6.49841 16.9363H4.13813C3.55178 16.9363 3.07517 16.4649 3.07517 15.885V13.5518C3.07517 12.9728 3.55178 12.5005 4.13813 12.5005H6.49841C7.08476 12.5005 7.56236 12.9728 7.56236 13.5518V15.885C7.56236 16.4649 7.08476 16.9363 6.49841 16.9363V16.9363ZM17.9458 19.2481C17.8983 19.2481 17.8637 19.2461 17.8439 19.2442L15.89 19.2461C15.5628 19.2461 15.2968 18.9831 15.2968 18.6594C15.2968 18.3357 15.5628 18.0726 15.89 18.0726H17.8993C17.9814 18.0716 18.0278 18.0638 18.0417 18.0531C18.0456 18.0462 18.0644 18.0022 18.0644 17.9093V15.801C18.0644 15.4773 18.3294 15.2152 18.6577 15.2152C18.985 15.2152 19.25 15.4773 19.25 15.801V17.9093C19.25 18.4393 19.0285 18.7523 18.8406 18.9205C18.5222 19.208 18.1356 19.2481 17.9458 19.2481V19.2481ZM1.28445 19.25C1.12822 19.25 0.73468 19.2129 0.409364 18.9205C0.22248 18.7523 0 18.4393 0 17.9103V15.801C0 15.4773 0.265988 15.2152 0.593281 15.2152C0.920575 15.2152 1.18656 15.4773 1.18656 15.801V17.9103C1.18656 18.0022 1.20337 18.0462 1.21029 18.055C1.22117 18.0638 1.27259 18.0697 1.31115 18.0736L3.36094 18.0726C3.68823 18.0726 3.95323 18.3357 3.95323 18.6594C3.95323 18.9831 3.68823 19.2461 3.36094 19.2461H1.35169C1.34378 19.2481 1.32005 19.25 1.28445 19.25V19.25Z" fill="white"/>
</svg>
