<svg width="17" height="14" viewBox="0 0 17 14" fill="none" xmlns="http://www.w3.org/2000/svg">
<path opacity="0.4" d="M10.2758 2.79492C10.7273 2.79492 11.1612 2.9723 11.477 3.28906C11.795 3.60897 11.9718 4.03905 11.9711 4.48633V5.41602C11.9674 5.52511 11.8783 5.61426 11.767 5.61719H4.65863C4.54825 5.61339 4.4597 5.52429 4.45746 5.41602V4.48633C4.44938 3.56023 5.20809 2.80444 6.15179 2.79492H10.2758ZM5.54633 0C5.85971 0.000132904 6.11452 0.249591 6.11469 0.557617C6.11469 0.865052 5.86056 1.1151 5.54633 1.11523L4.32953 1.11621C3.32015 1.1178 2.49849 1.9235 2.49847 2.91406V4.30273C2.49823 4.61 2.2435 4.86027 1.93011 4.86035C1.61666 4.86035 1.362 4.61005 1.36176 4.30273V2.91406C1.36177 1.30928 2.69282 0.0026836 4.32855 0.000976562L5.54535 0H5.54633ZM12.0912 0C13.7317 0 15.0649 1.30839 15.0649 2.91699V4.30273C15.0648 4.61006 14.8116 4.86014 14.4975 4.86035C14.1839 4.86035 13.9292 4.61019 13.9291 4.30273V2.91699C13.9291 1.92342 13.1045 1.11426 12.0912 1.11426H10.9018C10.5884 1.1142 10.3336 0.865908 10.3334 0.558594C10.3334 0.250378 10.5882 5.30387e-05 10.9018 0H12.0912Z" fill="white"/>
<path d="M15.8585 6.75085H0.56896C0.25536 6.75085 0 7.00053 0 7.30878C0 7.61629 0.25536 7.86523 0.56896 7.86523H1.36117V10.526C1.36117 12.1309 2.69323 13.4379 4.32917 13.4393L5.54549 13.4401C5.85984 13.4401 6.11371 13.1904 6.11445 12.8821C6.11445 12.5746 5.85984 12.325 5.54624 12.325L4.33067 12.3242C3.32043 12.3228 2.49835 11.5166 2.49835 10.526V7.86523H4.45685V8.60547C4.44939 9.53168 5.20725 10.2888 6.15104 10.2975H10.2756C11.2202 10.2888 11.978 9.53168 11.9706 8.60547V7.86523H13.9291V10.5231C13.9291 11.5174 13.1047 12.325 12.0915 12.325H10.9021C10.5877 12.325 10.3331 12.5746 10.3331 12.8821C10.3331 13.1904 10.5877 13.4401 10.9021 13.4401H12.0915C13.7312 13.4401 15.0655 12.1324 15.0655 10.5231V7.86523H15.8585C16.1721 7.86523 16.4267 7.61629 16.4267 7.30878C16.4267 7.00053 16.1721 6.75085 15.8585 6.75085Z" fill="white"/>
</svg>
