<svg width="23" height="23" viewBox="0 0 23 23" fill="none" xmlns="http://www.w3.org/2000/svg">
<path d="M15.3516 4.68774C16.1928 4.68775 16.8749 5.35925 16.875 6.18774V21.0002C16.8749 21.8287 16.1928 22.5002 15.3516 22.5002H7.14844C6.30705 22.5002 5.62511 21.8287 5.625 21.0002V6.18774C5.62512 5.35925 6.30706 4.68775 7.14844 4.68774H15.3516ZM9.30762 19.7122C8.95061 19.7124 8.66137 19.9973 8.66113 20.3489C8.66113 20.7006 8.95046 20.9863 9.30762 20.9866H13.3203C13.6777 20.9866 13.9678 20.7008 13.9678 20.3489C13.9675 19.9972 13.6775 19.7122 13.3203 19.7122H9.30762ZM13.0283 11.0657C12.9276 10.9877 12.7825 11.0051 12.7031 11.1047C12.2139 11.7193 11.6045 12.2334 10.9121 12.6145C10.3108 12.5246 9.73906 12.3461 9.21094 12.0901C9.13152 12.0516 9.0367 12.0616 8.9668 12.1155C8.83526 12.2171 8.69859 12.3135 8.55859 12.4036C8.33787 12.5464 8.10616 12.6753 7.86621 12.7883C7.60602 12.9107 7.33488 13.0148 7.05566 13.0989C6.97125 13.1245 6.90837 13.1955 6.89355 13.2825C6.87879 13.3697 6.91478 13.458 6.98633 13.51C7.10375 13.5952 7.2241 13.6769 7.34766 13.7541C7.34973 13.7554 7.35238 13.7559 7.35449 13.7571C7.51848 13.8597 7.68689 13.9557 7.86035 14.0432C8.101 14.165 8.35071 14.2717 8.60742 14.3625C9.27675 14.5994 9.99748 14.7278 10.7471 14.7278C11.7632 14.7277 12.7246 14.4908 13.5791 14.0696C13.838 13.9418 14.0874 13.7974 14.3252 13.637C14.7781 13.3318 15.1901 12.9696 15.5508 12.5618C15.6056 12.4997 15.6236 12.4129 15.5977 12.3342C15.5716 12.2558 15.5057 12.1971 15.4248 12.1799C15.1919 12.1305 14.964 12.0666 14.7422 11.9905C14.5882 11.9378 14.4372 11.8793 14.2891 11.8147C14.0497 11.7099 13.8183 11.5903 13.5967 11.4563C13.3994 11.3371 13.2096 11.2063 13.0283 11.0657ZM15.6045 2.13598C16.6244 2.08168 17.6419 2.47114 18.3936 3.22387C19.0762 3.90541 19.4617 4.80523 19.4854 5.73169C19.4946 6.09401 19.208 6.39532 18.8457 6.40454C18.4835 6.4136 18.1821 6.12711 18.1729 5.76489C18.1577 5.17457 17.9102 4.59527 17.4658 4.15161C16.9773 3.66241 16.3233 3.41301 15.6748 3.44751C15.3129 3.46671 15.0036 3.1883 14.9844 2.82641C14.9652 2.46476 15.2429 2.15552 15.6045 2.13598ZM15.8301 0.000241753C17.3175 0.0405772 18.7634 0.660148 19.8604 1.75805C20.9238 2.81946 21.5383 4.20759 21.6123 5.64868C21.6309 6.01064 21.3522 6.31956 20.9902 6.33813C20.6285 6.35644 20.3203 6.07787 20.3018 5.71606C20.2444 4.59871 19.7658 3.51735 18.9326 2.68579C18.073 1.8255 16.9463 1.34293 15.7939 1.31177C15.4318 1.30177 15.1465 1.00011 15.1562 0.637937C15.1661 0.275735 15.4679 -0.00948895 15.8301 0.000241753Z" fill="white"/>
</svg>
