<svg width="24" height="24" viewBox="0 0 24 24" fill="none" xmlns="http://www.w3.org/2000/svg">
<path d="M8.17927 12.4537C8.41052 12.2169 8.79077 12.2123 9.0279 12.443C9.2649 12.6744 9.26982 13.0545 9.03865 13.2916L6.93025 15.4498L18.3551 15.5573C18.6861 15.5607 18.9519 15.8326 18.9488 16.1637C18.9454 16.4947 18.6743 16.7603 18.3433 16.7575L6.92244 16.65L8.98396 18.8453C9.21046 19.0869 9.19808 19.4663 8.95662 19.693C8.74522 19.8914 8.42864 19.9068 8.20076 19.7457L8.10896 19.6666L5.12361 16.486C5.05672 16.4269 5.00205 16.3521 4.96638 16.2662C4.87459 16.0445 4.92271 15.7886 5.09041 15.6168L8.17927 12.4537ZM14.8414 3.58949C15.0785 3.35866 15.4587 3.36339 15.69 3.60023L18.7789 6.76332C18.9466 6.9351 18.9948 7.19096 18.9029 7.41273C18.8678 7.49727 18.8141 7.57078 18.7486 7.62953L15.7584 10.8131C15.5316 11.0545 15.1522 11.0661 14.9107 10.8395C14.6693 10.6126 14.6575 10.2333 14.8844 9.99183L16.9459 7.79554L5.52693 7.90394C5.19557 7.90706 4.92458 7.64057 4.92146 7.30921C4.91856 6.97811 5.18408 6.70698 5.51521 6.70375L16.9381 6.5973L14.8306 4.43812C14.5995 4.201 14.6044 3.82087 14.8414 3.58949Z" fill="#AAAAAA"/>
</svg>
