<svg width="24" height="24" viewBox="0 0 24 24" fill="none" xmlns="http://www.w3.org/2000/svg">
<path d="M12.139 5H12.269C13.709 5.19 14.809 5.68 15.489 6.49L15.619 6.66C16.249 7.45 16.499 8.53 16.389 9.86L16.359 10.15L16.449 10.28C17.079 11.24 16.799 12.51 15.789 13.99L15.649 14.19L15.619 14.24C15.519 14.46 15.409 14.68 15.309 14.89L15.149 15.2C17.529 15.79 19.199 16.75 20.259 18.17C20.459 18.44 20.399 18.81 20.139 19.01C19.879 19.21 19.499 19.15 19.299 18.89C18.479 17.78 17.159 16.99 15.219 16.46L14.869 16.37L14.119 16.18C13.769 16.09 13.579 15.72 13.699 15.4L13.739 15.31L14.109 14.63C14.229 14.42 14.339 14.2 14.459 13.95L14.579 13.69L14.669 13.54C15.559 12.3 15.779 11.45 15.489 10.95L15.439 10.87L15.289 10.68C15.209 10.58 15.169 10.46 15.169 10.34V10.25L15.179 10C15.309 8.93 15.169 8.11 14.779 7.52L14.669 7.37C14.239 6.8 13.479 6.41 12.379 6.23L12.189 6.2L11.969 6.24C10.969 6.4 10.239 6.75 9.79905 7.26L9.68905 7.39C9.26905 7.92 9.08905 8.7 9.16905 9.74L9.18905 10L9.21905 10.24C9.23905 10.37 9.20905 10.49 9.14905 10.6L9.09905 10.68L8.95905 10.87C8.60905 11.33 8.76905 12.15 9.60905 13.39L9.74905 13.59L9.83905 13.74C9.90905 13.92 10.009 14.1 10.109 14.28L10.279 14.55L10.729 15.25C10.929 15.57 10.789 15.99 10.459 16.13L10.369 16.16L9.55905 16.36C7.40905 16.89 5.95905 17.71 5.07905 18.89C4.87905 19.15 4.49905 19.21 4.23905 19.01C3.97905 18.81 3.91905 18.43 4.11905 18.17C5.13905 16.82 6.69905 15.89 8.89905 15.3L9.26905 15.2L9.14905 15C9.03905 14.81 8.92905 14.62 8.84905 14.45L8.76905 14.29L8.73905 14.24C7.58905 12.62 7.24905 11.28 7.90905 10.27L7.99905 10.14C7.83905 8.78 8.03905 7.66 8.60905 6.83L8.73905 6.66C9.36905 5.82 10.409 5.28 11.799 5.05L12.089 5H12.139Z" fill="#AAAAAA"/>
</svg>
