<svg width="23" height="23" viewBox="0 0 23 23" fill="none" xmlns="http://www.w3.org/2000/svg">
<path d="M20.1885 11.2133C20.4241 11.2838 20.5899 11.5005 20.5899 11.7514V16.9077C20.5897 17.477 20.1281 17.9389 19.5587 17.9389H17.2149C17.0658 17.9389 16.9229 17.8793 16.8174 17.7739L16.2774 17.2338L15.7374 17.7739C15.6319 17.8792 15.489 17.9389 15.3399 17.9389H4.55865C3.98931 17.9388 3.52759 17.477 3.5274 16.9077V12.3549L12.8467 14.853L13.0069 14.8823L13.044 14.8862C13.302 14.913 13.5635 14.8725 13.8018 14.768C14.0027 15.0412 14.2915 15.24 14.6221 15.3286L16.8858 15.935C17.9361 16.2164 19.0155 15.5927 19.2969 14.5424L20.1885 11.2133ZM4.18854 8.3725L7.31744 9.4975L17.0167 11.2172L19.2217 11.2026L18.3917 14.3002C18.2442 14.8504 17.6781 15.1771 17.128 15.0297L14.8643 14.4223C14.7205 14.3837 14.5981 14.2895 14.5235 14.1606L14.1827 13.5717L14.0831 13.5512L14.0635 13.5444L13.4805 13.8813C13.3771 13.941 13.258 13.9658 13.1407 13.9536L13.0538 13.9379L3.5274 11.3842V8.92621C3.52749 8.76003 3.60126 8.60236 3.72858 8.49555C3.85605 8.38869 4.02475 8.34347 4.18854 8.3725Z" fill="#EAFAF1"/>
<path d="M3.85166 2.63982C3.99905 2.08975 4.56428 1.76305 5.11435 1.91033L15.5284 4.70037C15.6723 4.73893 15.7956 4.83314 15.8702 4.96208L16.1935 5.52263L16.3214 5.54998L16.3575 5.56267L16.9122 5.24236C17.0155 5.18268 17.1348 5.15792 17.252 5.17009L17.3399 5.18572L19.6036 5.79314C20.1536 5.94067 20.4805 6.5058 20.3331 7.05583L18.3917 14.3C18.2443 14.8501 17.6782 15.1769 17.128 15.0295L14.8644 14.423C14.7206 14.3845 14.5981 14.2901 14.5235 14.1613L14.1827 13.5715L14.0831 13.551L14.0636 13.5441L13.4806 13.881C13.3772 13.9408 13.258 13.9655 13.1407 13.9533L13.0538 13.9377L2.63974 11.1467C2.08961 10.9992 1.76284 10.4341 1.91025 9.88396L3.85166 2.63982ZM15.4151 9.07341L14.9024 8.48748L14.5216 8.87322L15.1075 9.38201L14.3458 9.52947L14.4825 10.0539L15.2198 9.8029L14.9718 10.5373L15.4903 10.676L15.6407 9.91619L16.1534 10.5021L16.5343 10.1164L15.9503 9.60759L16.7101 9.46013L16.5733 8.93572L15.836 9.18669L16.086 8.4533L15.5675 8.31462L15.4151 9.07341ZM12.3487 8.25212L11.836 7.66619L11.4552 8.05193L12.0401 8.56072L11.2794 8.70818L11.4161 9.23259L12.1534 8.98162L11.9044 9.71501L12.4239 9.85466L12.5733 9.09392L13.087 9.67986L13.4669 9.29412L12.8839 8.7863L13.6427 8.63787L13.5069 8.11345L12.7696 8.36443L13.0196 7.63103L12.5001 7.49236L12.3487 8.25212ZM9.28135 7.42986L8.76865 6.84392L8.38779 7.22966L8.97373 7.73845L8.21201 7.88591L8.34873 8.41033L9.08603 8.15935L8.83799 8.89373L9.35654 9.0324L9.50693 8.27263L10.0196 8.85857L10.4005 8.47283L9.8165 7.96404L10.5763 7.81658L10.4395 7.29216L9.70224 7.54314L9.95224 6.80974L9.43369 6.67107L9.28135 7.42986ZM6.21494 6.60857L5.70224 6.02263L5.32139 6.40837L5.90635 6.91716L5.1456 7.06462L5.28232 7.58904L6.01963 7.33806L5.77158 8.07146L6.29014 8.21111L6.43955 7.45037L6.95322 8.0363L7.3331 7.65056L6.7501 7.14275L7.50889 6.99431L7.37314 6.4699L6.63584 6.72087L6.88584 5.98748L6.36631 5.8488L6.21494 6.60857Z" fill="#EAFAF1"/>
</svg>
